<svg xmlns="http://www.w3.org/2000/svg" xmlns:xlink="http://www.w3.org/1999/xlink" width="703.262" height="701.497" viewBox="0 0 703.262 701.497">
  <defs>
    <clipPath id="clip-path">
      <rect id="Rectangle_27159" data-name="Rectangle 27159" width="703.262" height="701.497" fill="#fff"/>
    </clipPath>
  </defs>
  <g id="Group_25295" data-name="Group 25295" transform="translate(-688 -330.365)">
    <path id="Path_23369" data-name="Path 23369" d="M203.591,487.612h32.675l-7.54-228.726L422.263,379.533,438.6,351.885,236.266,243.806,438.6,135.727l-16.338-27.649L228.726,228.725,236.266,0H203.591l7.54,228.725L16.338,108.079,0,135.727,202.334,243.806,0,351.885l16.338,27.648L211.131,258.887Z" transform="translate(1335.975 542.677) rotate(107)" fill="none" stroke="#fff" stroke-width="3"/>
    <g id="Group_25294" data-name="Group 25294" transform="translate(688 330.365)">
      <path id="Path_21763" data-name="Path 21763" d="M126.743,0l-1.627,22.955,2.714.192.731-10.281,10.573.751.168-2.393-10.57-.751.56-7.886,11.6.819.171-2.39Z" transform="translate(243.575 0.001)" fill="#fff"/>
      <path id="Path_21764" data-name="Path 21764" d="M150.226,25.2l-1.438-6.574-10.322-1.547-3.306,5.861-2.755-.413L144.7,1.1l2.95.442,5.466,24.093ZM139.715,14.868l8.528,1.279L145.659,4.319Z" transform="translate(257.762 2.132)" fill="#fff"/>
      <path id="Path_21765" data-name="Path 21765" d="M143.124,25l5.266-22.41,2.685.631L146.357,23.3l9.878,2.322-.548,2.337Z" transform="translate(278.632 5.044)" fill="#fff"/>
      <path id="Path_21766" data-name="Path 21766" d="M151.073,26.726,158,4.8l2.623.828-6.2,19.646,9.666,3.053-.722,2.287Z" transform="translate(294.107 9.337)" fill="#fff"/>
      <g id="Group_529" data-name="Group 529">
        <g id="Group_528" data-name="Group 528" clip-path="url(#clip-path)">
          <path id="Path_21767" data-name="Path 21767" d="M163.54,30.533l9.7-20.878,6.822,3.171c5.967,2.773,8.446,8.219,5.425,14.716l-.383.822c-2.994,6.442-8.719,8.142-14.749,5.34Zm3.51-1.014,4.114,1.912c4.739,2.2,8.867,1.081,11.357-4.27l.383-.822c2.461-5.292.707-9.22-4.117-11.46l-4.058-1.886Z" transform="translate(318.377 18.796)" fill="#fff"/>
          <path id="Path_21768" data-name="Path 21768" d="M175.8,22.445l.46-.781c3.474-5.891,9.409-7.732,15-4.441s6.822,9.362,3.348,15.253l-.46.784c-3.457,5.864-9.383,7.75-14.967,4.458s-6.834-9.406-3.377-15.273m15.916,9.383.46-.784c2.749-4.662,2.048-9.215-2.172-11.7s-8.54-.9-11.286,3.769l-.46.781c-2.749,4.665-2.048,9.218,2.169,11.7s8.54.9,11.289-3.769" transform="translate(338.504 30.376)" fill="#fff"/>
          <path id="Path_21769" data-name="Path 21769" d="M183.36,42.542l8.675-22.233,2.316,1.721-7.523,18.727,15.96-12.462,2.552,1.895-7.3,18.856L213.7,36.395l2.24,1.662L197.183,52.808l-2.552-1.895,7.22-18.75L185.991,44.5Z" transform="translate(356.961 39.536)" fill="#fff"/>
          <path id="Path_21770" data-name="Path 21770" d="M192.575,46.262l15.612-16.92,2.478,2.287-4.066,22.1,12.883-13.965,2,1.845L205.874,58.532,203.561,56.4l4.167-22.537L194.576,48.106Z" transform="translate(374.903 57.121)" fill="#fff"/>
          <rect id="Rectangle_27151" data-name="Rectangle 27151" width="2.368" height="10.024" transform="translate(603.528 123.953) rotate(-41.166)" fill="#fff"/>
          <path id="Path_21771" data-name="Path 21771" d="M215.254,52.2l.743-.522c5.516-3.872,11.8-3.1,15.414,2.051,2.923,4.167,2.408,8.961-1.058,12.15l-1.6-2.287a6.228,6.228,0,0,0,.625-8.475c-2.77-3.952-7.417-4.137-11.74-1.105l-.743.525c-4.326,3.035-5.693,7.514-3.012,11.336,2.776,3.952,6.722,3.713,9.294,1.91l.878-.616-4.075-5.811,1.936-1.358,5.564,7.933-9.84,6.91L216.3,72.924l2.528-2.21a7.558,7.558,0,0,1-6.978-3.454c-3.557-5.068-2.189-11.136,3.407-15.064" transform="translate(408.604 95.85)" fill="#fff"/>
          <path id="Path_21772" data-name="Path 21772" d="M214.751,69.091,234.7,57.628l7.538,13.125-2.08,1.2L234,61.214l-6.633,3.807,5.682,9.892-2.078,1.193-5.684-9.892L218.2,70.284l6.247,10.877-2.08,1.193Z" transform="translate(418.074 112.189)" fill="#fff"/>
          <path id="Path_21773" data-name="Path 21773" d="M220,82.025l18.674-8.749-3-6.4,2.175-1.017,7.181,15.326L242.86,82.2l-3.015-6.433-18.674,8.752Z" transform="translate(428.297 128.207)" fill="#fff"/>
          <path id="Path_21774" data-name="Path 21774" d="M231.776,84.615l13.7-4.323.834,2.631L232.7,87.217c-4.238,1.335-5.72,4.081-4.5,7.95,1.211,3.834,4.02,5.192,8.26,3.857l13.579-4.285.831,2.629L237.2,101.683c-5.384,1.7-9.571-.144-11.348-5.776s.516-9.583,5.929-11.292" transform="translate(438.526 156.311)" fill="#fff"/>
          <path id="Path_21775" data-name="Path 21775" d="M227.579,95.852l22.475-4.918,1.918,8.77c.958,4.367-.669,7.709-4.815,8.613l-.572.127c-4.178.914-7.016-1.45-7.971-5.82l-1.329-6.076-9.117,1.995Zm12.049.183,1.308,5.982c.616,2.817,2.3,4.308,5.054,3.7l.572-.124c2.752-.6,3.666-2.661,3.05-5.478L248.3,94.137Z" transform="translate(443.047 177.029)" fill="#fff"/>
          <rect id="Rectangle_27152" data-name="Rectangle 27152" width="2.364" height="10.012" transform="translate(687.865 307.499) rotate(-6.443)" fill="#fff"/>
          <path id="Path_21776" data-name="Path 21776" d="M241.848,114.989l.914-.015c6.769-.112,11.51,3.993,11.616,10.314a8.929,8.929,0,0,1-8.307,9.509l-.044-2.788c3.816-.616,5.944-3.18,5.885-6.713-.08-4.768-3.822-7.558-9.106-7.47l-.908.015c-5.283.088-8.935,3.035-8.855,7.768a6.269,6.269,0,0,0,6.465,6.506l.047,2.823a9.1,9.1,0,0,1-8.976-9.288c-.1-6.256,4.4-10.547,11.268-10.661" transform="translate(448.885 223.826)" fill="#fff"/>
          <path id="Path_21777" data-name="Path 21777" d="M231.457,125.78,254.38,127.7l-.775,9.265c-.371,4.456-2.905,7.17-7.134,6.816l-.581-.05c-3.778-.315-5.782-2.791-5.932-6.445l-9.9,5.186.265-3.162,9.789-5.1.407-4.906-9.294-.778Zm11.46,3.722-.539,6.424c-.239,2.873.934,4.794,3.743,5.027l.58.047c2.808.236,4.285-1.462,4.523-4.335l.539-6.424Z" transform="translate(447.883 244.867)" fill="#fff"/>
          <path id="Path_21778" data-name="Path 21778" d="M231.244,135.279l22.7,3.831-2.52,14.928-2.366-.4,2.063-12.214-7.544-1.273-1.9,11.254-2.366-.4,1.9-11.254L233.15,138.4l-2.089,12.371-2.363-.4Z" transform="translate(445.225 263.358)" fill="#fff"/>
          <path id="Path_21779" data-name="Path 21779" d="M226.917,161.33l6.689-.722,2.649-10.09-5.472-3.916.71-2.7,19.97,14.525-.757,2.882-24.529,2.838Zm11.4-9.335-2.186,8.336,12.032-1.3Z" transform="translate(440.318 280.154)" fill="#fff"/>
          <path id="Path_21780" data-name="Path 21780" d="M225.368,155.011l19.472,6.748,2.316-6.674,2.266.787-5.54,15.98-2.263-.784,2.322-6.707-19.475-6.748Z" transform="translate(436.988 301.772)" fill="#fff"/>
          <path id="Path_21781" data-name="Path 21781" d="M226.352,161.719l21.04,9.288-6.112,13.841-2.192-.969,5-11.319-6.993-3.088L232.487,179.9l-2.192-.967L234.9,168.5l-7.467-3.3-5.066,11.469-2.192-.969Z" transform="translate(428.634 314.831)" fill="#fff"/>
          <path id="Path_21782" data-name="Path 21782" d="M220.255,174.665l19.729,11.846-1.417,2.36-17.675-10.611-5.222,8.7-2.057-1.235Z" transform="translate(415.859 340.036)" fill="#fff"/>
          <path id="Path_21783" data-name="Path 21783" d="M223.753,184.462l11.672,8.366-1.606,2.239-11.6-8.31c-3.607-2.587-6.689-2.122-9.052,1.17-2.343,3.268-1.745,6.329,1.868,8.917l11.566,8.289L225,207.373l-11.646-8.348c-4.585-3.286-5.622-7.738-2.186-12.533s7.974-5.333,12.586-2.03" transform="translate(407.136 355.023)" fill="#fff"/>
          <path id="Path_21784" data-name="Path 21784" d="M220.4,194.059l.687.6c5.124,4.435,5.914,10.653,1.774,15.429a8.923,8.923,0,0,1-12.53,1.544l1.827-2.107c3.253,2.086,6.551,1.6,8.864-1.073,3.121-3.6,2.192-8.18-1.8-11.637l-.69-.6c-3.993-3.46-8.675-3.7-11.772-.121a6.269,6.269,0,0,0,.471,9.159l-1.848,2.131a9.094,9.094,0,0,1-.489-12.9c4.1-4.73,10.311-4.924,15.506-.424" transform="translate(394.114 371.459)" fill="#fff"/>
          <path id="Path_21785" data-name="Path 21785" d="M206.789,197.41l15.963,16.57-1.986,1.909-8.5-8.82.66,16.372-2.452,2.363-.416-13.417-15.78-2.929,2.334-2.248,13.52,2.5-.183-5.045L204.8,199.32Z" transform="translate(378.22 384.315)" fill="#fff"/>
          <rect id="Rectangle_27153" data-name="Rectangle 27153" width="10.017" height="2.367" transform="translate(556.351 621.009) rotate(-37.969)" fill="#fff"/>
          <path id="Path_21786" data-name="Path 21786" d="M190.056,212.055l12.226,19.472-7.871,4.942c-3.784,2.378-7.476,1.98-9.73-1.612l-.312-.5c-2.013-3.209-1.238-6.3,1.591-8.607l-10.084-4.8,2.687-1.686,9.951,4.765,4.17-2.62-4.959-7.9Zm3.9,11.392-5.46,3.427c-2.44,1.532-3.271,3.622-1.771,6.008l.309.492c1.5,2.387,3.739,2.546,6.182,1.014l5.457-3.427Z" transform="translate(342.393 412.825)" fill="#fff"/>
          <path id="Path_21787" data-name="Path 21787" d="M181.475,216.98l10.535,20.462-13.458,6.931-1.1-2.133,11.009-5.67-3.5-6.8-10.146,5.225-1.1-2.133,10.149-5.222-3.742-7.264-11.154,5.743-1.1-2.136Z" transform="translate(326.811 422.414)" fill="#fff"/>
          <path id="Path_21788" data-name="Path 21788" d="M170.516,221.091l8.778,21.293-8.307,3.424c-4.14,1.706-7.718.693-9.335-3.239l-.224-.539c-1.633-3.958.2-7.172,4.338-8.879l5.758-2.372-3.56-8.64ZM172.44,233l-5.667,2.337c-2.67,1.1-3.843,3.023-2.767,5.631l.224.539c1.076,2.611,3.259,3.147,5.932,2.048l5.667-2.337Z" transform="translate(313.111 430.417)" fill="#fff"/>
          <path id="Path_21789" data-name="Path 21789" d="M164.882,224.541l6.928,21.933-14.427,4.556-.722-2.287,11.8-3.725-2.3-7.29-10.877,3.433-.722-2.284,10.874-3.436-2.458-7.785-11.955,3.778-.722-2.287Z" transform="translate(292.604 437.134)" fill="#fff"/>
          <path id="Path_21790" data-name="Path 21790" d="M142.76,230.939l3.7,5.625,10.193-2.243.99-6.657,2.723-.6-3.819,24.405-2.911.642-13.72-20.545Zm13.511,5.888-8.419,1.854,6.639,10.119Z" transform="translate(272.375 442.045)" fill="#fff"/>
          <path id="Path_21791" data-name="Path 21791" d="M140.038,229.269l2.888,20.418,7-.99.336,2.375L133.5,253.444l-.336-2.378,7.031-.993-2.888-20.418Z" transform="translate(259.246 446.337)" fill="#fff"/>
          <rect id="Rectangle_27154" data-name="Rectangle 27154" width="10.011" height="2.364" transform="translate(360.348 689.691) rotate(-2.285)" fill="#fff"/>
          <path id="Path_21792" data-name="Path 21792" d="M123.394,230.405l-1.786,22.956-14.324-1.117.189-2.393,11.6.9.616-7.889-10.573-.825.189-2.39,10.57.822.8-10.281Z" transform="translate(208.859 448.137)" fill="#fff"/>
          <path id="Path_21793" data-name="Path 21793" d="M101.344,228.995l1.4,6.58,10.311,1.606,3.336-5.841,2.752.427-12.412,21.349-2.944-.46-5.325-24.113Zm10.449,10.384-8.519-1.329,2.519,11.837Z" transform="translate(191.684 444.926)" fill="#fff"/>
          <path id="Path_21794" data-name="Path 21794" d="M103.411,229.742l-5.428,22.346-2.673-.648,4.859-20.017-9.851-2.393.566-2.328Z" transform="translate(175.831 441.338)" fill="#fff"/>
          <path id="Path_21795" data-name="Path 21795" d="M95.433,228.261l-7.087,21.9-2.623-.849L92.071,229.7l-9.654-3.127.74-2.281Z" transform="translate(160.448 436.642)" fill="#fff"/>
          <path id="Path_21796" data-name="Path 21796" d="M89.756,224.053,79.9,244.833,73.1,241.613c-5.944-2.823-8.375-8.28-5.3-14.749l.389-.819c3.044-6.409,8.778-8.065,14.781-5.216Zm-3.513.984-4.1-1.945c-4.712-2.237-8.852-1.152-11.38,4.176l-.389.819c-2.5,5.269-.781,9.206,4.019,11.484l4.04,1.918Z" transform="translate(129.397 427.29)" fill="#fff"/>
          <path id="Path_21797" data-name="Path 21797" d="M77.107,230.981l-.463.778c-3.513,5.873-9.465,7.679-15.032,4.352s-6.769-9.409-3.253-15.282l.466-.778c3.489-5.846,9.433-7.7,15-4.37s6.772,9.453,3.28,15.3M61.244,221.5l-.469.778c-2.779,4.65-2.1,9.209,2.1,11.719s8.534.949,11.316-3.7l.466-.778c2.773-4.647,2.1-9.206-2.1-11.719s-8.537-.949-11.316,3.7" transform="translate(109.752 416.684)" fill="#fff"/>
          <path id="Path_21798" data-name="Path 21798" d="M76.178,216.629,67.346,238.8l-2.3-1.736L72.7,218.394,56.65,230.744l-2.537-1.912,7.429-18.8L45.8,222.57l-2.225-1.68,18.854-14.622,2.537,1.912-7.349,18.7,15.948-12.22Z" transform="translate(84.825 401.56)" fill="#fff"/>
          <path id="Path_21799" data-name="Path 21799" d="M64.585,210.659,48.879,227.45l-2.461-2.3,4.214-22.045L37.669,216.965l-1.989-1.86,15.706-16.791,2.3,2.145-4.311,22.484L62.6,208.8Z" transform="translate(69.462 386.077)" fill="#fff"/>
          <rect id="Rectangle_27155" data-name="Rectangle 27155" width="2.366" height="10.019" transform="translate(89.847 569.918) rotate(-40.81)" fill="#fff"/>
          <path id="Path_21800" data-name="Path 21800" d="M38.332,202.15l-.746.513c-5.546,3.828-11.823,3-15.391-2.172-2.885-4.187-2.334-8.976,1.158-12.129l1.582,2.293a6.229,6.229,0,0,0-.692,8.466c2.738,3.972,7.379,4.2,11.725,1.2l.746-.513c4.346-3,5.749-7.47,3.1-11.307-2.743-3.972-6.692-3.769-9.279-1.983l-.878.6,4.028,5.841L31.74,194.3l-5.5-7.974,9.892-6.822,1.323,1.918-2.543,2.189a7.551,7.551,0,0,1,6.946,3.51c3.516,5.092,2.1,11.145-3.527,15.026" transform="translate(39.599 349.462)" fill="#fff"/>
          <path id="Path_21801" data-name="Path 21801" d="M41.672,184.733l-20.05,11.333L14.17,182.88l2.089-1.182,6.1,10.788,6.666-3.766-5.62-9.942,2.089-1.179,5.62,9.94,7.116-4.025-6.179-10.927,2.089-1.182Z" transform="translate(27.586 333.689)" fill="#fff"/>
          <path id="Path_21802" data-name="Path 21802" d="M34.851,167.7l-18.733,8.637,2.962,6.418L16.9,183.764,9.812,168.388l2.178-1,2.973,6.448L33.7,165.2Z" transform="translate(19.101 321.602)" fill="#fff"/>
          <path id="Path_21803" data-name="Path 21803" d="M23.466,167.264,9.743,171.487l-.81-2.631,13.629-4.2c4.246-1.305,5.746-4.04,4.553-7.912-1.182-3.843-3.978-5.219-8.224-3.913l-13.6,4.184-.81-2.631,13.694-4.214c5.39-1.659,9.559.212,11.3,5.849s-.581,9.574-6,11.242" transform="translate(8.722 291.221)" fill="#fff"/>
          <path id="Path_21804" data-name="Path 21804" d="M27.143,153.263l-22.5,4.759-1.856-8.781c-.925-4.376.722-7.706,4.877-8.584l.569-.118c4.184-.884,7.007,1.5,7.93,5.873l1.288,6.088,9.129-1.93ZM15.1,152.995,13.833,147c-.6-2.823-2.272-4.323-5.027-3.739l-.572.121c-2.758.583-3.683,2.631-3.085,5.454l1.264,5.991Z" transform="translate(4.93 273.243)" fill="#fff"/>
          <rect id="Rectangle_27156" data-name="Rectangle 27156" width="2.366" height="10.017" transform="translate(11.664 382.077) rotate(-6.08)" fill="#fff"/>
          <path id="Path_21805" data-name="Path 21805" d="M12.178,135.4l-.908-.015C4.5,135.272-.1,131.011,0,124.69a8.925,8.925,0,0,1,8.616-9.229l-.047,2.788c-3.834.489-6.047,2.979-6.106,6.515-.08,4.765,3.569,7.679,8.852,7.768l.908.015c5.287.088,9.029-2.735,9.106-7.467a6.266,6.266,0,0,0-6.241-6.722l.047-2.82a9.1,9.1,0,0,1,8.661,9.58c-.106,6.259-4.744,10.4-11.619,10.281" transform="translate(0.001 224.778)" fill="#fff"/>
          <path id="Path_21806" data-name="Path 21806" d="M23.3,123.538.377,121.5l.825-9.268c.4-4.453,2.95-7.155,7.178-6.781l.583.053c3.775.336,5.767,2.826,5.9,6.48l9.928-5.133-.283,3.162-9.822,5.048-.436,4.906,9.3.831Zm-11.442-3.787.572-6.424c.256-2.873-.9-4.8-3.713-5.051l-.583-.05c-2.808-.25-4.293,1.438-4.55,4.311l-.572,6.424Z" transform="translate(0.734 205.217)" fill="#fff"/>
          <path id="Path_21807" data-name="Path 21807" d="M24.174,114.529l-22.667-3.99L4.133,95.628l2.36.418L4.349,108.241l7.535,1.326,1.977-11.236,2.363.415-1.98,11.239,8.045,1.414,2.178-12.353,2.36.415Z" transform="translate(2.935 186.168)" fill="#fff"/>
          <path id="Path_21808" data-name="Path 21808" d="M28.673,89.392l-6.7.675-2.723,10.078L24.7,104.1l-.728,2.693L4.094,92.121l.778-2.879L29.43,86.575ZM17.2,98.651l2.248-8.325L7.406,91.537Z" transform="translate(7.97 168.543)" fill="#fff"/>
          <path id="Path_21809" data-name="Path 21809" d="M30.018,93.56,10.569,86.7,8.22,93.363l-2.266-.8L11.588,76.6l2.263.8-2.363,6.7,19.446,6.863Z" transform="translate(11.592 149.132)" fill="#fff"/>
          <path id="Path_21810" data-name="Path 21810" d="M30.543,90.992,9.568,81.541l6.215-13.794,2.187.984L12.886,80.015l6.972,3.141,4.685-10.4,2.187.984-4.685,10.4L29.488,87.5l5.151-11.433,2.187.987Z" transform="translate(18.626 131.89)" fill="#fff"/>
          <path id="Path_21811" data-name="Path 21811" d="M36.139,72.221,16.5,60.252,17.936,57.9,35.526,68.623,40.8,59.969l2.045,1.247Z" transform="translate(32.13 112.719)" fill="#fff"/>
          <path id="Path_21812" data-name="Path 21812" d="M32.684,69.484,21.071,61.039l1.618-2.228L34.225,67.2c3.592,2.611,6.677,2.169,9.061-1.108,2.363-3.25,1.786-6.315-1.806-8.926L29.973,48.795l1.621-2.225,11.59,8.425c4.559,3.318,5.564,7.777,2.092,12.547s-8,5.278-12.592,1.942" transform="translate(41.021 90.662)" fill="#fff"/>
          <path id="Path_21813" data-name="Path 21813" d="M33.946,58.393l-.678-.6c-5.086-4.473-5.829-10.694-1.653-15.438a8.916,8.916,0,0,1,12.533-1.444L42.309,43c-3.236-2.11-6.536-1.647-8.867,1-3.147,3.574-2.257,8.157,1.706,11.643l.684.6c3.963,3.489,8.64,3.763,11.767.212a6.265,6.265,0,0,0-.4-9.159l1.862-2.116a9.093,9.093,0,0,1,.389,12.9c-4.134,4.694-10.346,4.839-15.5.3" transform="translate(56.282 75.889)" fill="#fff"/>
          <path id="Path_21814" data-name="Path 21814" d="M51.167,58.92,35.3,42.224l2-1.9,8.445,8.89-.545-16.4,2.469-2.349L47.993,43.9l15.777,3.044-2.352,2.234L47.9,46.582l.144,5.054,5.119,5.384Z" transform="translate(68.719 59.316)" fill="#fff"/>
          <rect id="Rectangle_27157" data-name="Rectangle 27157" width="10.014" height="2.366" transform="translate(139.386 83.43) rotate(-37.612)" fill="#fff"/>
          <path id="Path_21815" data-name="Path 21815" d="M66.6,42.742,54.5,23.176l7.912-4.892c3.8-2.352,7.494-1.93,9.727,1.683l.306.5c1.995,3.227,1.2,6.309-1.653,8.6l10.06,4.868-2.7,1.671-9.925-4.839-4.19,2.59L68.945,41.3ZM62.775,31.318l5.484-3.392c2.455-1.518,3.3-3.6,1.818-6l-.309-.5c-1.482-2.4-3.725-2.575-6.176-1.058l-5.484,3.392Z" transform="translate(106.1 32.743)" fill="#fff"/>
          <path id="Path_21816" data-name="Path 21816" d="M73.717,38.829,63.312,18.3l13.5-6.845L77.9,13.6l-11.042,5.6,3.46,6.825,10.175-5.16L81.573,23,71.4,28.159l3.692,7.287,11.189-5.676,1.084,2.139Z" transform="translate(123.255 22.303)" fill="#fff"/>
          <path id="Path_21817" data-name="Path 21817" d="M80.94,33.513,72.321,12.187,80.64,8.824c4.149-1.677,7.712-.637,9.3,3.3l.218.542c1.6,3.966-.25,7.161-4.4,8.834L80,23.829l3.5,8.649ZM79.1,21.607l5.678-2.3c2.673-1.081,3.854-2.991,2.8-5.6l-.218-.539C86.3,10.554,84.123,10,81.45,11.082l-5.678,2.3Z" transform="translate(140.793 15.678)" fill="#fff"/>
          <path id="Path_21818" data-name="Path 21818" d="M88.618,30.775,81.85,8.781,96.318,4.328l.707,2.293L85.191,10.263l2.248,7.311,10.906-3.356.7,2.293-10.9,3.356,2.4,7.806,11.993-3.689.7,2.293Z" transform="translate(159.344 8.426)" fill="#fff"/>
          <path id="Path_21819" data-name="Path 21819" d="M110.176,23.607l-3.654-5.652L96.314,20.13,95.28,26.778l-2.729.581L96.544,2.983l2.917-.622L113.028,23ZM96.709,17.625l8.434-1.795L98.571,5.664Z" transform="translate(180.177 4.596)" fill="#fff"/>
          <path id="Path_21820" data-name="Path 21820" d="M110.553,24.647,107.806,4.229l-7,.94-.318-2.375L117.248.539l.321,2.375-7.034.946,2.746,20.418Z" transform="translate(195.631 1.05)" fill="#fff"/>
          <rect id="Rectangle_27158" data-name="Rectangle 27158" width="10.022" height="2.369" transform="matrix(0.999, -0.034, 0.034, 0.999, 335.186, 9.832)" fill="#fff"/>
        </g>
      </g>
    </g>
  </g>
</svg>
