<svg width="22" height="22" viewBox="0 0 22 22" fill="none" xmlns="http://www.w3.org/2000/svg">
<g id="Star">
<g id="Path 15820">
<path d="M10.3551 1L11.6962 1L11.387 10.3815L19.3294 5.43308L19.9995 6.56705L11.6965 11L19.9998 15.4331L19.3293 16.567L11.3871 11.6185L11.6969 21H10.3559L10.665 11.6185L2.67111 16.567L2.00056 15.4331L10.304 11L2.00022 6.56705L2.67068 5.43308L10.665 10.3815L10.3551 1Z" fill="white" fill-opacity="0.25"/>
<path d="M10.3551 0.5H9.83836L9.85542 1.01649L10.1345 9.46511L2.93383 5.00794L2.49996 4.73938L2.24027 5.17859L1.56981 6.31257L1.304 6.76215L1.76476 7.00813L9.24232 11L1.76506 14.992L1.30433 15.238L1.57018 15.6876L2.24073 16.8215L2.50045 17.2608L2.9343 16.9922L10.1346 12.5349L9.85619 20.9835L9.83917 21.5H10.3559H11.6969H12.2137L12.1967 20.9835L11.9177 12.5382L19.0649 16.9914L19.4993 17.262L19.7597 16.8215L20.4302 15.6876L20.696 15.238L20.2353 14.992L12.7582 11L20.235 7.00813L20.6955 6.76223L20.4299 6.31271L19.7599 5.17874L19.4995 4.73801L19.065 5.0087L11.9176 9.46185L12.1959 1.01649L12.2129 0.5H11.6961L10.3551 0.5Z" stroke="white" stroke-opacity="0.25"/>
</g>
</g>
</svg>
