<svg xmlns="http://www.w3.org/2000/svg" xmlns:xlink="http://www.w3.org/1999/xlink" width="11.181" height="11.161" viewBox="0 0 11.181 11.161"><defs><clipPath id="a"><rect width="11.181" height="11.161" fill="none"/></clipPath></defs><g clip-path="url(#a)"><path d="M11.064,4.328a1.446,1.446,0,0,0-.75-.757L10.3,3.565l.011,0-.016-.007A1.452,1.452,0,0,0,7.708,2.277v0L6.239,4.525l-.01.032c.061-.183.347-1.274.347-1.274a.072.072,0,1,0-.133-.053s-.474.871-.6,1.124h0l.472-2.61A1.452,1.452,0,0,0,3.561.868,1.452,1.452,0,0,0,2.277,3.452h0L4.548,4.932l.024.008C4.389,4.879,3.3,4.592,3.3,4.592a.072.072,0,0,0-.053.133s.994.542,1.167.623l0,0,0,0-2.7-.513v0A1.452,1.452,0,0,0,.868,7.6a1.452,1.452,0,0,0,2.6,1.264l1.49-2.271h0v0c-.061.183-.348,1.274-.348,1.274a.072.072,0,1,0,.133.053s.542-.994.623-1.167l-.005.011L4.84,9.441h0a1.452,1.452,0,0,0,2.757.853A1.452,1.452,0,0,0,8.863,7.7L6.583,6.219h.006c.182.06,1.275.354,1.275.354a.072.072,0,0,0,.053-.133S6.929,5.9,6.755,5.813l0,0,2.664.5a1.442,1.442,0,0,0,.658-.017c-.009-.079-.013-.157-.019-.236.006.079.01.157.019.236a1.459,1.459,0,0,0,.222-.075,1.438,1.438,0,0,0,.766-1.893M4.221,2.81a.426.426,0,0,0-.088.137.425.425,0,0,1,.228-.233.433.433,0,0,1,.082-.026.433.433,0,0,0-.082.026.427.427,0,0,0-.139.1M8.068,4.638,5.961,5.727l.775,2.239a.112.112,0,0,1-.062.14.11.11,0,0,1-.044.009.112.112,0,0,1-.1-.061L5.444,5.947,3.2,6.722a.112.112,0,0,1-.088-.205l2.1-1.087L4.446,3.189A.112.112,0,0,1,4.652,3.1l1.09,2.105L7.98,4.432a.112.112,0,0,1,.088.205m1.974,1.235c-.006-.125-.009-.252-.009-.383q0-.259.018-.51-.017.25-.018.51c0,.132,0,.258.009.383" transform="translate(0 0)" fill="#fff"/></g></svg>