<svg xmlns="http://www.w3.org/2000/svg" width="300" height="551" viewBox="0 0 300 551" fill="none">
  <path opacity="0.5" d="M240.874 1H239.839L239.875 2.03434L248.633 256.64L22.5862 122.314L21.74 121.811L21.2239 122.649L2.13393 153.645L1.5667 154.566L2.52935 155.059L237.225 275.339L2.53869 395.622L1.57609 396.116L2.14339 397.037L21.2357 428.033L21.752 428.871L22.5981 428.368L248.635 294.038L239.896 548.644L239.86 549.678H240.895H279.078H280.112L280.077 548.644L271.318 294.045L495.881 428.366L496.728 428.873L497.245 428.033L516.335 397.037L516.903 396.116L515.94 395.622L281.259 275.339L515.931 155.059L516.893 154.566L516.326 153.645L497.248 122.649L496.731 121.808L495.884 122.315L271.317 256.633L280.056 2.03434L280.091 1H279.056L240.874 1Z" stroke="#4A4A4A" stroke-width="2"/>
</svg>