<svg xmlns="http://www.w3.org/2000/svg" width="172" height="262" viewBox="0 0 172 262" fill="none">
  <path opacity="0.5" d="M114.995 1H113.96L113.996 2.03434L118.086 120.929L12.5007 58.186L11.6546 57.6832L11.1384 58.5212L2.15131 73.1134L1.58407 74.0344L2.54673 74.5278L112.117 130.682L2.55108 186.838L1.58848 187.331L2.15579 188.252L11.144 202.844L11.6602 203.682L12.5064 203.179L118.087 140.435L114.006 259.329L113.97 260.364H115.005H132.981H134.016L133.98 259.329L129.89 140.441L234.775 203.178L235.622 203.685L236.14 202.844L245.127 188.252L245.694 187.331L244.732 186.838L135.168 130.682L244.727 74.5278L245.69 74.0346L245.123 73.1137L236.141 58.5215L235.624 57.6806L234.776 58.1875L129.889 120.923L133.97 2.03434L134.006 1L132.971 1L114.995 1Z" stroke="#4A4A4A" stroke-width="2"/>
</svg>