<svg width="43" height="65" viewBox="0 0 43 65" fill="none" xmlns="http://www.w3.org/2000/svg">
<mask id="mask0_1991_18618" style="mask-type:luminance" maskUnits="userSpaceOnUse" x="0" y="0" width="43" height="65">
<path d="M43 0H0V65H43V0Z" fill="white"/>
</mask>
<g mask="url(#mask0_1991_18618)">
<path d="M21.5024 0C9.70277 0 0.00244122 9.27261 0.00244122 22.4995C-0.0588311 26.6021 1.03443 30.6383 3.15559 34.1405L20.0554 64.1407C20.1986 64.4015 20.4085 64.6189 20.6632 64.7703C20.918 64.9216 21.2084 65.0015 21.5041 65.0015C21.7998 65.0015 22.0902 64.9216 22.345 64.7703C22.5997 64.6189 22.8096 64.4015 22.9528 64.1407L39.8493 34.1405C41.9706 30.6384 43.0639 26.6021 43.0024 22.4995C43.0024 9.27261 33.3013 0 21.5024 0ZM21.5024 3.33697C31.625 3.33697 39.6937 10.8744 39.6937 22.4995C39.8031 26.0314 38.858 29.515 36.9809 32.4996L21.5008 59.9462L6.02065 32.4996C4.14566 29.5143 3.20268 26.0308 3.3137 22.4995C3.3137 10.8735 11.3816 3.33697 21.5024 3.33697ZM21.5024 10.0034C19.2128 10.0034 16.9745 10.6877 15.0707 11.9697C13.167 13.2517 11.6832 15.0739 10.8071 17.2058C9.93107 19.3377 9.70202 21.6835 10.149 23.9466C10.5959 26.2097 11.6987 28.2884 13.318 29.9198C14.9373 31.5512 17.0003 32.662 19.2461 33.1117C21.4918 33.5615 23.8195 33.33 25.9347 32.4465C28.0499 31.563 29.8577 30.0672 31.1293 28.1483C32.4009 26.2294 33.0793 23.9736 33.0786 21.6661C33.0718 18.5742 31.85 15.6108 29.6805 13.4245C27.5111 11.2382 24.5705 10.0069 21.5024 10.0001M21.5024 13.337C23.1379 13.337 24.7366 13.8258 26.0965 14.7414C27.4563 15.6571 28.5162 16.9586 29.142 18.4813C29.7679 20.004 29.9317 21.6795 29.6126 23.296C29.2935 24.9125 28.506 26.3974 27.3495 27.5628C26.1931 28.7282 24.7197 29.5219 23.1157 29.8434C21.5116 30.1649 19.849 29.9999 18.338 29.3692C16.827 28.7385 15.5356 27.6704 14.627 26.3C13.7184 24.9296 13.2334 23.3184 13.2334 21.6703C13.2301 20.575 13.4418 19.4899 13.8562 18.4774C14.2706 17.4649 14.8795 16.5449 15.648 15.7704C16.4165 14.9959 17.3294 14.3822 18.3341 13.9646C19.3389 13.547 20.4156 13.3337 21.5024 13.337Z" fill="white"/>
</g>
</svg>
