<svg width="62" height="60" viewBox="0 0 62 60" fill="none" xmlns="http://www.w3.org/2000/svg">
<g clip-path="url(#clip0_1991_18598)">
<mask id="mask0_1991_18598" style="mask-type:luminance" maskUnits="userSpaceOnUse" x="0" y="0" width="62" height="60">
<path d="M61.44 0.319336H0V59.1215H61.44V0.319336Z" fill="white"/>
</mask>
<g mask="url(#mask0_1991_18598)">
<path d="M32.0381 11.5V32.8802L42.557 41.9948L40.6315 44.2155L29.1026 34.2227V11.5008L32.0381 11.5ZM32.0381 0.319336C26.4449 0.328231 20.9696 1.92893 16.2524 4.93436C11.5352 7.93979 7.77085 12.2258 5.39932 17.2914L2.83952 7.73608L0 8.50044L3.80473 22.7013L18.0015 18.8958L17.2437 16.0562L8.07377 18.5128C10.6718 12.9642 15.1153 8.48957 20.6455 5.85284C26.1757 3.21612 32.4498 2.58084 38.3963 4.05549C44.3428 5.53013 49.5931 9.02325 53.2506 13.9384C56.9081 18.8535 58.746 24.8859 58.4505 31.0054C58.155 37.1249 55.7445 42.9521 51.6304 47.492C47.5164 52.0319 41.954 55.0029 35.893 55.8977C29.8321 56.7926 23.6484 55.5558 18.398 52.3985C13.1475 49.2412 9.15582 44.3592 7.10449 38.5862L4.3349 39.5701C6.13979 44.6469 9.30506 49.1302 13.485 52.5302C17.6649 55.9303 22.6988 58.1163 28.0368 58.8496C33.3748 59.5828 38.8117 58.8352 43.7536 56.6882C48.6955 54.5413 52.9525 51.0776 56.0595 46.6755C59.1665 42.2734 61.0041 37.1021 61.3716 31.7265C61.7391 26.351 60.6223 20.9777 58.1433 16.1938C55.6643 11.4098 51.9183 7.39899 47.3146 4.59947C42.7108 1.79994 37.4263 0.319328 32.0381 0.319336Z" fill="white"/>
</g>
</g>
<defs>
<clipPath id="clip0_1991_18598">
<rect width="61.44" height="58.8021" fill="white" transform="translate(0 0.319336)"/>
</clipPath>
</defs>
</svg>
