<svg width="543" height="870" viewBox="0 0 543 870" fill="none" xmlns="http://www.w3.org/2000/svg">
<path opacity="0.5" d="M379.447 1H378.412L378.448 2.03434L392.345 405.99L33.7283 192.887L32.8822 192.384L32.366 193.222L2.15789 242.27L1.59065 243.191L2.5533 243.685L374.95 434.535L2.56813 625.391L1.60553 625.885L2.17283 626.806L32.3848 675.854L32.901 676.692L33.7471 676.189L392.347 463.08L378.481 867.036L378.446 868.07H379.481H439.901H440.936L440.9 867.036L427.004 463.087L783.272 676.188L784.119 676.695L784.637 675.854L814.845 626.806L815.412 625.885L814.45 625.391L442.077 434.535L814.435 243.684L815.397 243.191L814.83 242.27L784.642 193.222L784.124 192.381L783.277 192.888L427.002 405.984L440.867 2.03434L440.902 1H439.867L379.447 1Z" stroke="#4A4A4A" stroke-width="2"/>
</svg>
