<svg xmlns="http://www.w3.org/2000/svg" xmlns:xlink="http://www.w3.org/1999/xlink" width="264.057" height="39.018" viewBox="0 0 264.057 39.018"><defs><clipPath id="a"><rect width="264.057" height="39.018" fill="none"/></clipPath></defs><g clip-path="url(#a)"><path d="M323.135,37.435l-10.2-18.852,9.386-17.124c.216-.379.054-.649-.378-.649H310.993a1.505,1.505,0,0,0-1.242.649l-6.02,12.262V1.62a.8.8,0,0,0-.81-.811H293.36a.824.824,0,0,0-.756.811V3.588a1.007,1.007,0,0,0-.479-.454A22.322,22.322,0,0,0,280.78,0C269.652,0,262.2,7.779,262.2,19.447s7.455,19.447,18.583,19.447a22.322,22.322,0,0,0,11.344-3.133,1.007,1.007,0,0,0,.479-.454v2.022a.813.813,0,0,0,.756.756h9.562a.785.785,0,0,0,.81-.756v-13.4l6.236,13.5a1.465,1.465,0,0,0,1.134.648h11.654c.433,0,.649-.269.379-.648M289.045,27.28a.7.7,0,0,0-1.027-.432,11.97,11.97,0,0,1-6.266,1.512c-4.862,0-8.1-3.565-8.1-8.913s3.241-8.914,8.1-8.914a11.971,11.971,0,0,1,6.266,1.513.7.7,0,0,0,1.027-.432L292.6,4.12V34.774Z" transform="translate(-59.197 0)" fill="#fff"/><path d="M137.332.928h-11.21a1.414,1.414,0,0,0-1.24.862l-4.42,9.7-4.419-9.7A1.415,1.415,0,0,0,114.8.928L97.454.945a1.5,1.5,0,0,0-1.238.646L90.907,13.813V1.753A.793.793,0,0,0,90.1.945H80.571a.821.821,0,0,0-.754.808v1.8a1.1,1.1,0,0,0-.386-.308A22.272,22.272,0,0,0,68.114.12C57.844.12,50.712,6.761,49.7,16.969V1.845a.908.908,0,0,0-.916-.917h-9.27a.945.945,0,0,0-.916.917v23.5a3.515,3.515,0,0,1-3.773,3.88c-2.371,0-3.772-1.455-3.772-3.934V1.845a.909.909,0,0,0-.917-.917H20.866a.945.945,0,0,0-.917.917V24.318a21.9,21.9,0,0,0,.408,4.1h-9.2V1.737a.83.83,0,0,0-.809-.809H.809A.829.829,0,0,0,0,1.737V37.36a.821.821,0,0,0,.808.755H20.265a.922.922,0,0,0,.862-.755l.482-5.236c2.231,4.445,6.684,6.745,13.215,6.745,9.755,0,14.874-5.012,14.874-14.551V22.075c1.013,10.208,8.146,16.849,18.415,16.849A22.272,22.272,0,0,0,79.431,35.8a1.123,1.123,0,0,0,.386-.3v1.847a.811.811,0,0,0,.754.754H90.1a.783.783,0,0,0,.808-.754V23.989l5.524,13.46a1.462,1.462,0,0,0,1.13.646h11.616c.43,0,.646-.269.376-.646L99.392,18.659,105.837,6.9l9.075,16.344V37.36a.821.821,0,0,0,.808.755H125.2a.821.821,0,0,0,.809-.755V23.241l11.91-21.45c.27-.485-.107-.862-.592-.862M76.359,27.336a.7.7,0,0,0-1.024-.431,11.939,11.939,0,0,1-6.251,1.509c-4.851,0-8.085-3.557-8.085-8.892s3.235-8.893,8.085-8.893a11.939,11.939,0,0,1,6.251,1.509.7.7,0,0,0,1.024-.431l3.458-7.282V34.619Z" transform="translate(0 -0.027)" fill="#fff"/><line x2="0.015" y2="0.012" transform="translate(203.906 12.758)" fill="#00a1ed"/><path d="M218.261,1.54a.8.8,0,0,0-.757-.493H194.385a.773.773,0,0,0-.756.756V37.51a.821.821,0,0,0,.756.811h9.562a.823.823,0,0,0,.811-.756V24.654h4.068a1.1,1.1,0,0,0,.15-.013l.01,0a.691.691,0,0,0,.564-.631l0-.074a3.162,3.162,0,0,0-.072-.615A7.789,7.789,0,0,1,209.4,22.2a7.349,7.349,0,0,1,2.082-5.191.858.858,0,0,0,.222-.73l0-.011a.693.693,0,0,0-.631-.564h0a5.2,5.2,0,0,0-.555-.016h-5.752V10.77h8.695a3.591,3.591,0,0,0,.488-.046.061.061,0,0,0,.012-.005.811.811,0,0,0,.661-.739v0a6.091,6.091,0,0,0,0-.8h0c-.175-3.64,1.336-6.276,3.645-7.636" transform="translate(-43.716 -0.236)" fill="#fff"/><path d="M265.768,19.122a5,5,0,0,0-2.594-2.618l-.057-.022,0,.005a23.963,23.963,0,0,0-.908,6.648,24.055,24.055,0,0,0,.142,2.788,5.01,5.01,0,0,0,3.418-6.8" transform="translate(-59.2 -3.721)" fill="#1a1818"/><path d="M234.228,27.569a.528.528,0,0,0-.42.012l0,0-5.055,2.166a1.472,1.472,0,1,1-1.159-2.706l4.395-1.883,0,0,.646-.277.024-.012a.531.531,0,0,0,.041-.934l-9.334-1.775,0,.007a5.02,5.02,0,0,0-2.947,9.529,5.019,5.019,0,0,0,8.974,4.371l5.15-7.851a.53.53,0,0,0-.31-.643" transform="translate(-49.086 -4.984)" fill="#fff"/><path d="M226.912,12.5l-.007,0,7.857,5.112.081.026h.013a.5.5,0,0,0,.615-.251.574.574,0,0,0,.017-.48l0,0-.18-.421h0c-.817-1.906-1.972-4.6-1.973-4.606a1.472,1.472,0,1,1,2.706-1.159s1.325,3.093,2.146,5.009a.124.124,0,0,0,.012.023.522.522,0,0,0,.28.263.529.529,0,0,0,.667-.241l.006-.012c.018-.039.043-.089.074-.149L240.863,6.6a5.019,5.019,0,0,0-9.512-3.026,5.02,5.02,0,0,0-4.439,8.931" transform="translate(-50.714 -0.128)" fill="#fff"/><path d="M259.155,10.823a5.02,5.02,0,0,0-8.826-.756l0-.007-5.075,7.777c-.014.043-.026.081-.036.111v.012a.529.529,0,0,0,.731.633l0,0L251,16.43a1.472,1.472,0,0,1,1.16,2.706s-3.109,1.332-5.024,2.152l-.005,0-.063.027v0a.528.528,0,0,0-.046.965l0,0,9.206,1.735a5,5,0,0,0,2.275-.06,24.061,24.061,0,0,1-.143-2.787,23.9,23.9,0,0,1,.908-6.648l0-.005.038.014c-.018-.008-.035-.017-.054-.025a5,5,0,0,0-.1-3.684" transform="translate(-55.358 -1.756)" fill="#fff"/><path d="M252.905,33.429l-7.882-5.108a.46.46,0,0,0-.593.211.629.629,0,0,0,.025.517c0,.009.009.023.009.025.036.084.074.171.111.259.821,1.912,2.049,4.732,2.05,4.735a1.472,1.472,0,0,1-2.707,1.16s-1.325-3.093-2.145-5.009c0,0-.008-.016-.012-.024a.531.531,0,0,0-.948-.022l-.006.011-.018.038L239,39.46l.007,0a5.02,5.02,0,0,0,9.529,2.947,5.019,5.019,0,0,0,4.37-8.974" transform="translate(-53.942 -6.387)" fill="#fff"/><path d="M248.1,25.976s-3.533-1.95-4.155-2.243l-.009-.01a.547.547,0,0,1,.047-1v0l.066-.028,0,0,5.2-2.226a1.522,1.522,0,0,0-1.2-2.8l-5.228,2.239,0,0a.547.547,0,0,1-.756-.653v-.014c.217-.653,1.242-4.555,1.242-4.556a.256.256,0,0,0-.476-.191s-1.936,3.553-2.228,4.173l-.006.012a.55.55,0,0,1-.98-.022.159.159,0,0,1-.012-.025c-.849-1.982-2.219-5.177-2.219-5.18a1.522,1.522,0,1,0-2.8,1.2s1.2,2.792,2.04,4.763h-.006c.066.151.128.3.188.436l0,0a.589.589,0,0,1-.018.5.513.513,0,0,1-.635.259h-.014c-.653-.218-4.555-1.243-4.555-1.243a.256.256,0,1,0-.191.476s3.553,1.936,4.172,2.227a.06.06,0,0,1,.012.007.55.55,0,0,1-.022.98l-.025.012-.668.286.006,0-4.545,1.947a1.522,1.522,0,1,0,1.2,2.8l5.228-2.24,0,0a.547.547,0,0,1,.756.653v.013c-.218.653-1.243,4.555-1.243,4.556a.257.257,0,0,0,.476.191s1.936-3.553,2.227-4.173l.006-.012a.55.55,0,0,1,.98.023l.012.024,2.219,5.18a1.522,1.522,0,1,0,2.8-1.2s-1.271-2.92-2.119-4.9l-.114-.267-.01-.026a.657.657,0,0,1-.026-.535.48.48,0,0,1,.622-.216l.014,0c.649.216,4.557,1.265,4.557,1.266a.257.257,0,0,0,.191-.476" transform="translate(-52.11 -3.144)" fill="#fff"/><g transform="translate(177.458 9.522)"><path d="M252,20.484l-9.589,3.311-.249.109-.135-.318-4.63-8.944,3.282,9.522.138.318-.251.109-9.012,4.654,9.579-3.312.261-.11.091.208,4.673,9.058-3.331-9.624-.091-.214.253-.107Z" transform="translate(-231.55 -14.641)" fill="#1a1818"/><path d="M252,20.484l-9.589,3.311-.249.109-.135-.318-4.63-8.944,3.282,9.522.138.318-.251.109-9.012,4.654,9.579-3.312.261-.11.091.208,4.673,9.058-3.331-9.624-.091-.214.253-.107Z" transform="translate(-231.55 -14.641)" fill="none" stroke="#1a1818" stroke-linejoin="round" stroke-width="1"/></g></g></svg>