<svg width="193" height="282" viewBox="0 0 193 282" fill="none" xmlns="http://www.w3.org/2000/svg">
<path opacity="0.5" d="M74.4878 1.62198L73.4881 1.35411L73.2548 2.36242L43.9893 128.826L-49.5694 32.8844L-50.2566 32.1797L-50.9721 32.8556L-64.5477 45.6807L-65.334 46.4235L-64.5318 47.1492L35.095 137.279L-96.2452 165.523L-97.3027 165.751L-96.9931 166.787L-91.6476 184.682L-91.3659 185.625L-90.4185 185.359L38.5719 149.047L0.694507 273.203L0.392514 274.193L1.3922 274.461L20.3133 279.531L21.313 279.799L21.5463 278.79L50.8103 152.333L143.634 248.071L144.321 248.78L145.038 248.102L158.614 235.277L159.4 234.534L158.598 233.808L58.9788 143.679L190.311 115.434L191.368 115.207L191.059 114.171L185.721 96.2777L185.439 95.3315L184.489 95.6017L56.231 132.1L94.1066 7.94964L94.4086 6.95973L93.4089 6.69187L74.4878 1.62198Z" stroke="#4A4A4A" stroke-width="2"/>
</svg>
