<svg width="261" height="481" viewBox="0 0 261 481" fill="none" xmlns="http://www.w3.org/2000/svg">
<path opacity="0.5" d="M17.5731 1H16.5381L16.5737 2.03434L24.2082 223.955L-172.827 106.869L-173.673 106.366L-174.19 107.204L-190.846 134.25L-191.414 135.171L-190.451 135.664L14.1095 240.5L-190.443 345.339L-191.405 345.832L-190.838 346.753L-174.179 373.799L-173.663 374.637L-172.817 374.134L24.2095 257.045L16.5923 478.966L16.5568 480H17.5917H50.9074H51.9423L51.9067 478.966L44.2724 257.051L240.012 374.132L240.859 374.639L241.377 373.799L258.033 346.753L258.601 345.832L257.638 345.339L53.0905 240.5L257.63 135.664L258.592 135.171L258.025 134.25L241.379 107.205L240.862 106.364L240.014 106.871L44.2712 223.949L51.8882 2.03434L51.9237 1H50.8887L17.5731 1Z" stroke="#4A4A4A" stroke-width="2"/>
</svg>
