<svg width="183" height="278" viewBox="0 0 183 278" fill="none" xmlns="http://www.w3.org/2000/svg">
<path opacity="0.5" d="M42.8293 1L41.7944 1L41.8299 2.03434L46.1736 128.295L-65.9507 61.6669L-66.7969 61.1641L-67.313 62.0022L-76.8485 77.4848L-77.4158 78.4058L-76.4531 78.8991L39.9092 138.534L-76.4485 198.171L-77.4111 198.664L-76.8438 199.585L-67.3071 215.068L-66.7908 215.906L-65.9447 215.403L46.1744 148.773L41.8405 275.034L41.805 276.068H42.84H61.9122H62.9472L62.9116 275.034L58.5682 148.779L169.949 215.401L170.797 215.908L171.314 215.068L180.85 199.585L181.417 198.664L180.454 198.171L64.0993 138.534L180.45 78.8991L181.412 78.4059L180.845 77.4851L171.316 62.0025L170.798 61.1616L169.951 61.6684L58.5674 128.289L62.901 2.03434L62.9365 1L61.9015 1L42.8293 1Z" stroke="#4A4A4A" stroke-width="2"/>
</svg>
