<svg width="36" height="36" viewBox="0 0 36 36" fill="none" xmlns="http://www.w3.org/2000/svg">
<path d="M16.9252 2L19.1603 2L18.645 17.0105L31.8824 9.09292L32.9991 10.9073L19.1609 18L32.9996 25.0929L31.8822 26.9073L18.6451 18.9895L19.1615 34H16.9265L17.4417 18.9895L4.11847 26.9073L3.0009 25.0929L16.84 18L3.00035 10.9073L4.11778 9.09292L17.4416 17.0105L16.9252 2Z" fill="white" fill-opacity="0.25"/>
<path d="M16.9252 1H15.8902L15.9258 2.03434L16.3793 15.216L4.62861 8.23326L3.78245 7.73044L3.26631 8.56849L2.14887 10.3829L1.58164 11.3039L2.54429 11.7972L14.6475 18L2.54476 24.203L1.58216 24.6964L2.14946 25.6174L3.26704 27.4317L3.78326 28.2698L4.62938 27.7669L16.3795 20.784L15.9271 33.9657L15.8916 35H16.9265H19.1615H20.1965L20.1609 33.9657L19.7076 20.7903L31.3689 27.7655L32.216 28.2722L32.7337 27.4317L33.8511 25.6174L34.4183 24.6964L33.4557 24.203L21.3533 18L33.4552 11.7972L34.4175 11.304L33.8507 10.3831L32.734 8.56879L32.2164 7.72788L31.369 8.23472L19.7074 15.2098L20.1597 2.03434L20.1952 1H19.1602L16.9252 1Z" stroke="white" stroke-opacity="0.25" stroke-width="2"/>
</svg>
